<svg width="20" height="20" viewBox="0 0 20 20" fill="none" xmlns="http://www.w3.org/2000/svg">
<path d="M1.51212 7C1.18046 7.93834 1 8.94809 1 10C1 14.9706 5.02944 19 10 19C14.9706 19 19 14.9706 19 10C19 8.94809 18.8195 7.93834 18.4879 7M1.51212 7C2.74763 3.50442 6.08134 1 10 1C13.9187 1 17.2524 3.50442 18.4879 7M1.51212 7H18.4879M1.51212 13H18.4879M10.75 1.03081C10.75 1.03081 13.75 4.75 13.75 10C13.75 15.25 10.75 19 10.75 19M9.25 1.03081C9.25 1.03081 6.25 4.75 6.25 10C6.25 15.25 9.25 18.9692 9.25 18.9692" stroke="#1B1B1B"/>
</svg>
